<svg width="220" height="56" viewBox="0 0 220 56" fill="none" xmlns="http://www.w3.org/2000/svg">
<rect width="220" height="56" fill="#F5F5F1"/>
<circle cx="110" cy="28" r="28" fill="#EF4D35"/>
<path fill-rule="evenodd" clip-rule="evenodd" d="M94.3367 43.6455L94.3367 18.7679L101.444 18.7679L101.444 10.2964L127.998 10.2964L127.998 10.2964L128 10.2964L128 27.9986L127.998 27.9986L127.998 36.8497L119.214 36.8497L119.214 43.6455L94.3367 43.6455ZM119.214 27.9986L127.998 27.9986L127.998 10.2964L110.298 10.2964L110.298 18.7679L119.214 18.7679L119.214 27.9986ZM119.214 27.9986L110.298 27.9986L110.298 18.7679L101.444 18.7679L101.444 36.8497L119.214 36.8497L119.214 27.9986Z" fill="white"/>
</svg>
