<svg width="174" height="69" viewBox="0 0 174 69" fill="none" xmlns="http://www.w3.org/2000/svg">
<path d="M42.7188 45.0391L51.0063 24.8833H54.2569L62.5152 45.0391H58.2689L51.8848 28.4959H53.3491L46.8772 45.0391H42.7188ZM47.1114 41.2831V38.0146H58.181V41.2831H47.1114Z" fill="#0F0F16"/>
<path d="M69.6977 45.3258C68.4482 45.3258 67.3354 45.0677 66.3592 44.5517C65.4026 44.0356 64.651 43.3188 64.1043 42.4013C63.5577 41.4838 63.2843 40.423 63.2843 39.2188V31.1909H67.1499V39.1328C67.1499 39.7062 67.2475 40.2032 67.4428 40.6237C67.638 41.0251 67.9308 41.3309 68.3213 41.5412C68.7118 41.7514 69.1706 41.8566 69.6977 41.8566C70.4981 41.8566 71.1229 41.6176 71.5719 41.1398C72.0209 40.6619 72.2455 39.993 72.2455 39.1328V31.1909H76.0817V39.2188C76.0817 40.4421 75.8084 41.5125 75.2618 42.43C74.7346 43.3475 73.983 44.0642 73.0069 44.5803C72.0502 45.0773 70.9472 45.3258 69.6977 45.3258Z" fill="#0F0F16"/>
<path d="M80.6302 45.0391V25.4281H84.4665V45.0391H80.6302ZM77.3211 34.4881V31.1909H87.7757V34.4881H77.3211Z" fill="#0F0F16"/>
<path d="M95.6519 45.3258C94.2267 45.3258 92.9382 45.0104 91.7863 44.3796C90.654 43.7297 89.7462 42.8601 89.0628 41.7706C88.3991 40.6619 88.0672 39.4291 88.0672 38.072C88.0672 36.7149 88.3991 35.5012 89.0628 34.4308C89.7266 33.3413 90.6345 32.4811 91.7863 31.8504C92.9382 31.2005 94.2169 30.8756 95.6226 30.8756C97.0673 30.8756 98.3558 31.2005 99.4882 31.8504C100.64 32.4811 101.548 33.3413 102.212 34.4308C102.875 35.5012 103.207 36.7149 103.207 38.072C103.207 39.4291 102.875 40.6619 102.212 41.7706C101.548 42.8601 100.64 43.7297 99.4882 44.3796C98.3558 45.0104 97.0771 45.3258 95.6519 45.3258ZM95.6226 41.8279C96.345 41.8279 96.9795 41.675 97.5261 41.3692C98.0923 41.0442 98.5218 40.6046 98.8146 40.0503C99.127 39.4769 99.2832 38.827 99.2832 38.1007C99.2832 37.3743 99.127 36.734 98.8146 36.1797C98.5023 35.6254 98.0728 35.1953 97.5261 34.8895C96.9795 34.5646 96.345 34.4021 95.6226 34.4021C94.9198 34.4021 94.295 34.5646 93.7484 34.8895C93.2017 35.1953 92.7722 35.6254 92.4599 36.1797C92.1475 36.734 91.9913 37.3743 91.9913 38.1007C91.9913 38.827 92.1475 39.4769 92.4599 40.0503C92.7722 40.6046 93.2017 41.0442 93.7484 41.3692C94.295 41.675 94.9198 41.8279 95.6226 41.8279Z" fill="#0F0F16"/>
<path d="M105.091 45.0391V31.1909H108.928V45.0391H105.091ZM114.316 45.0391V36.8678C114.316 36.065 114.052 35.4438 113.525 35.0042C113.018 34.5455 112.383 34.3161 111.622 34.3161C111.114 34.3161 110.655 34.4212 110.245 34.6315C109.835 34.8226 109.513 35.1093 109.279 35.4916C109.045 35.8739 108.928 36.3326 108.928 36.8678L107.434 36.151C107.434 35.0806 107.668 34.1536 108.137 33.3699C108.625 32.5863 109.279 31.9842 110.099 31.5637C110.919 31.124 111.846 30.9042 112.881 30.9042C113.857 30.9042 114.746 31.124 115.546 31.5637C116.346 31.9842 116.981 32.5863 117.45 33.3699C117.918 34.1345 118.152 35.0615 118.152 36.151V45.0391H114.316ZM123.541 45.0391V36.8678C123.541 36.065 123.277 35.4438 122.75 35.0042C122.242 34.5455 121.608 34.3161 120.847 34.3161C120.358 34.3161 119.9 34.4212 119.47 34.6315C119.06 34.8226 118.738 35.1093 118.504 35.4916C118.269 35.8739 118.152 36.3326 118.152 36.8678L115.956 36.3517C116.034 35.2431 116.337 34.2874 116.864 33.4846C117.391 32.6627 118.084 32.032 118.943 31.5923C119.802 31.1336 120.759 30.9042 121.813 30.9042C122.867 30.9042 123.814 31.124 124.654 31.5637C125.493 31.9842 126.157 32.5958 126.645 33.3986C127.133 34.2014 127.377 35.1571 127.377 36.2657V45.0391H123.541Z" fill="#0F0F16"/>
<path d="M135.816 45.3258C134.528 45.3258 133.366 45.0104 132.332 44.3796C131.297 43.7489 130.487 42.8887 129.901 41.7992C129.315 40.7097 129.022 39.4864 129.022 38.1293C129.022 36.7531 129.315 35.5203 129.901 34.4308C130.487 33.3413 131.297 32.4811 132.332 31.8504C133.366 31.2196 134.528 30.9042 135.816 30.9042C136.832 30.9042 137.739 31.1049 138.54 31.5063C139.34 31.9077 139.975 32.4716 140.443 33.1979C140.932 33.9051 141.195 34.7079 141.234 35.6063V40.595C141.195 41.5125 140.932 42.3249 140.443 43.0321C139.975 43.7393 139.34 44.3032 138.54 44.7237C137.739 45.1251 136.832 45.3258 135.816 45.3258ZM136.519 41.8566C137.593 41.8566 138.462 41.5125 139.126 40.8244C139.789 40.1172 140.121 39.2093 140.121 38.1007C140.121 37.3743 139.965 36.734 139.653 36.1797C139.36 35.6063 138.94 35.1667 138.394 34.8608C137.866 34.5359 137.242 34.3734 136.519 34.3734C135.816 34.3734 135.192 34.5359 134.645 34.8608C134.118 35.1667 133.698 35.6063 133.386 36.1797C133.093 36.734 132.947 37.3743 132.947 38.1007C132.947 38.8461 133.093 39.5055 133.386 40.079C133.698 40.6333 134.118 41.0729 134.645 41.3978C135.192 41.7037 135.816 41.8566 136.519 41.8566ZM139.916 45.0391V41.3118L140.531 37.9286L139.916 34.6028V31.1909H143.723V45.0391H139.916Z" fill="#0F0F16"/>
<path d="M148.611 45.0391V25.4281H152.447V45.0391H148.611ZM145.301 34.4881V31.1909H155.756V34.4881H145.301Z" fill="#0F0F16"/>
<path d="M163.749 45.3258C162.266 45.3258 160.948 45.0199 159.796 44.4083C158.644 43.7775 157.727 42.9174 157.043 41.8279C156.379 40.7384 156.048 39.496 156.048 38.1007C156.048 36.7245 156.37 35.5012 157.014 34.4308C157.678 33.3413 158.576 32.4811 159.708 31.8504C160.84 31.2005 162.1 30.8756 163.486 30.8756C164.852 30.8756 166.053 31.1814 167.088 31.793C168.142 32.3856 168.962 33.2075 169.548 34.2587C170.153 35.2909 170.456 36.4664 170.456 37.7853C170.456 38.0338 170.436 38.2918 170.397 38.5594C170.378 38.8079 170.329 39.0946 170.251 39.4195L158.361 39.4482V36.6384L168.464 36.6098L166.912 37.7853C166.873 36.9634 166.717 36.2753 166.444 35.721C166.19 35.1667 165.809 34.7461 165.302 34.4594C164.813 34.1536 164.208 34.0007 163.486 34.0007C162.724 34.0007 162.061 34.1727 161.495 34.5168C160.928 34.8417 160.489 35.31 160.177 35.9217C159.884 36.5142 159.737 37.2214 159.737 38.0433C159.737 38.8843 159.894 39.6202 160.206 40.251C160.538 40.8626 161.006 41.3405 161.612 41.6845C162.217 42.0095 162.92 42.172 163.72 42.172C164.443 42.172 165.097 42.0573 165.682 41.8279C166.268 41.5794 166.776 41.2163 167.205 40.7384L169.46 42.9461C168.777 43.7297 167.937 44.3223 166.941 44.7237C165.965 45.1251 164.901 45.3258 163.749 45.3258Z" fill="#0F0F16"/>
<path fill-rule="evenodd" clip-rule="evenodd" d="M3.58789 49.3455L3.58789 27.9195L9.71094 27.9195L9.71094 20.6238L17.3319 20.6238L17.3319 27.9195L25.0139 27.9195L25.0139 35.87L32.5781 35.87L32.5781 20.6238L32.5802 20.6238L32.5802 43.493L25.0139 43.493L25.0139 49.3455L3.58789 49.3455ZM25.0139 43.493L9.71094 43.493L9.71094 27.9195L17.3319 27.9195L17.3319 35.87L25.0139 35.87L25.0139 43.493Z" fill="#0F0F16"/>
</svg>
