<svg width="24" height="24" viewBox="0 0 24 24" fill="none" xmlns="http://www.w3.org/2000/svg">
<path d="M11.4713 6.69656L13.3274 4.8404C13.7104 4.45707 14.1652 4.15295 14.6657 3.94541C15.1663 3.73787 15.7028 3.63099 16.2446 3.63086C16.7865 3.63073 17.3231 3.73737 17.8237 3.94467C18.3244 4.15198 18.7793 4.45589 19.1624 4.83904C19.5456 5.2222 19.8495 5.67709 20.0568 6.17773C20.2641 6.67838 20.3707 7.21496 20.3706 7.75682C20.3705 8.29868 20.2636 8.83521 20.0561 9.33576C19.8485 9.8363 19.5444 10.2911 19.1611 10.674L16.5094 13.3257C16.1264 13.7087 15.6716 14.0126 15.1712 14.2199C14.6707 14.4272 14.1343 14.5339 13.5926 14.5339C13.0509 14.5339 12.5145 14.4272 12.014 14.2199C11.5136 14.0126 11.0588 13.7087 10.6758 13.3257" stroke="#0F0F16" stroke-width="2" stroke-linecap="round" stroke-linejoin="round"/>
<path d="M12.5321 17.3034L10.676 19.1595C10.293 19.5429 9.83826 19.847 9.33771 20.0545C8.83717 20.2621 8.30064 20.3689 7.75877 20.3691C7.21691 20.3692 6.68033 20.2626 6.17969 20.0553C5.67905 19.848 5.22415 19.544 4.841 19.1609C4.45784 18.7777 4.15393 18.3228 3.94663 17.8222C3.73932 17.3216 3.63269 16.785 3.63281 16.2431C3.63294 15.7012 3.73982 15.1647 3.94736 14.6642C4.1549 14.1636 4.45902 13.7089 4.84236 13.3259L7.49401 10.6742C7.87705 10.2912 8.33178 9.98736 8.83225 9.78006C9.33272 9.57276 9.86912 9.46606 10.4108 9.46606C10.9525 9.46606 11.4889 9.57276 11.9894 9.78006C12.4899 9.98736 12.9446 10.2912 13.3276 10.6742" stroke="#0F0F16" stroke-width="2" stroke-linecap="round" stroke-linejoin="round"/>
</svg>
