<svg width="24" height="24" viewBox="0 0 24 24" fill="none" xmlns="http://www.w3.org/2000/svg">
<g opacity="0.3">
<path d="M21.7425 19.8752C20.3431 17.4644 18.1031 15.655 15.4519 14.7939C16.7227 14.0383 17.7102 12.8863 18.2628 11.5149C18.8153 10.1436 18.9024 8.62881 18.5105 7.20321C18.1187 5.77762 17.2696 4.5201 16.0938 3.62385C14.918 2.7276 13.4804 2.24219 12.0019 2.24219C10.5235 2.24219 9.08588 2.7276 7.91004 3.62385C6.73421 4.5201 5.88515 5.77762 5.49331 7.20321C5.10146 8.62881 5.18851 10.1436 5.74108 11.5149C6.29364 12.8863 7.28116 14.0383 8.55192 14.7939C5.90076 15.655 3.66073 17.4644 2.2613 19.8752C2.19259 19.9882 2.15625 20.1179 2.15625 20.2502C2.15625 20.3824 2.19259 20.5121 2.2613 20.6252C2.3254 20.7401 2.41933 20.8356 2.53318 20.9016C2.64703 20.9676 2.77658 21.0016 2.90817 21.0002H21.0957C21.2273 21.0016 21.3568 20.9676 21.4707 20.9016C21.5845 20.8356 21.6784 20.7401 21.7425 20.6252C21.8113 20.5121 21.8476 20.3824 21.8476 20.2502C21.8476 20.1179 21.8113 19.9882 21.7425 19.8752Z" fill="#6F6F72"/>
</g>
</svg>
